<svg xmlns="http://www.w3.org/2000/svg" version="1.1" style="display: block;" viewBox="0 0 2048 2048" width="1024" height="1024" preserveAspectRatio="none">
<path transform="translate(0,0)" fill="rgb(255,255,255)" d="M 0 0 L 2048 0 L 2048 2048 L 0 2048 L 0 0 z"/>
<path transform="translate(0,0)" fill="rgb(54,91,128)" d="M 854.388 519.453 C 966.854 518.567 1079.33 518.942 1191.78 520.578 C 1207.62 520.875 1222.61 523.275 1237.84 523.673 C 1307.62 525.494 1377.48 524.82 1447.26 526.558 C 1469.92 527.122 1492.32 531.082 1514.92 532.131 C 1561.95 533.287 1608.44 532.455 1655.19 538.82 C 1666.04 540.296 1678.92 540.179 1690.21 541.259 C 1691.91 542.479 1696.76 546.182 1697.25 547.878 C 1699.01 553.869 1698.96 567.244 1699.02 573.44 C 1699.63 634.369 1699.24 695.376 1699.21 756.3 L 1700.09 999.903 C 1700.57 1094.65 1700.4 1189.4 1699.59 1284.15 C 1699.1 1324.72 1699.16 1365.41 1697.7 1405.96 C 1697.39 1414.71 1693.56 1421.73 1692.03 1430.18 C 1690.86 1436.64 1691.68 1446.24 1690.78 1452.43 C 1689.81 1459.08 1687.06 1469.16 1685.2 1475.98 C 1680.9 1491.66 1676.34 1509.33 1670.67 1524.49 C 1643.36 1596.1 1599.17 1660.05 1541.84 1710.91 C 1511.95 1737.09 1477.74 1759.33 1445.63 1782.67 C 1439.68 1787 1431.42 1790.17 1425.38 1794.52 C 1401.3 1811.84 1375.71 1826.65 1350.56 1842.22 C 1280.96 1886 1210.67 1928.68 1139.73 1970.26 C 1130.61 1977.24 1115.29 1985.82 1105.14 1991.66 C 1091.51 1999.5 1039.85 2035.7 1026.05 2029.17 C 996.796 2015.35 966.784 1993.57 939.169 1976.56 L 799.508 1892.05 C 726.856 1847.6 652.214 1805.77 582.364 1756.89 C 544.104 1730.12 508.648 1700.93 475.534 1667.99 C 456.114 1648.67 434.107 1622.34 419.602 1599.06 C 411.735 1586.44 403.782 1573.42 397.192 1560.09 C 393.403 1552.42 389.673 1544.58 386.551 1536.62 C 385.075 1532.86 384.319 1528.74 382.785 1525.05 C 382.225 1523.7 380.882 1522.64 379.845 1521.7 C 375.333 1517.58 358.807 1449.7 356.728 1438.64 C 354.292 1425.69 353.475 1412.49 350.978 1399.44 C 345.587 1371.25 347.885 1339.79 347.807 1311.14 L 347.893 1164.47 L 348.035 697.464 L 348.011 594.437 C 348.009 585.106 346.743 543.776 350.164 538.705 C 359.478 531.239 441.904 533.144 460.462 531.438 C 530.982 524.956 602.271 525.741 672.999 524.445 L 854.388 519.453 z"/>
<path transform="translate(0,0)" fill="rgb(255,255,255)" d="M 756.172 706.494 L 1091.16 706.043 L 1212.69 706.239 C 1237.84 706.275 1263.24 705.96 1288.45 706.815 C 1303.28 707.317 1323.06 713.029 1338.39 714.814 C 1343.09 715.362 1348.66 718.305 1354.03 719.208 C 1357.42 719.777 1367.26 720.569 1371.11 721.759 C 1375.25 727.746 1384.1 729.139 1390.93 732.352 C 1408.48 740.815 1424.26 752.547 1437.42 766.92 C 1473.07 805.707 1489.27 850.105 1492.31 901.759 C 1493.73 925.856 1496.08 948.572 1494.99 972.785 L 1339.44 972.848 C 1306.03 972.921 1271.13 973.503 1237.83 972.687 C 1227.61 951.671 1228.9 934.418 1212.8 915.689 C 1165.91 861.155 1069.6 884.323 1004.79 879.779 C 953.254 876.166 891.882 878.013 852.494 914.176 C 807.373 955.602 815.38 1003.93 815.781 1059.33 C 815.961 1093.91 815.957 1128.48 815.768 1163.06 C 815.852 1192.88 815.686 1222.71 815.269 1252.53 C 814.719 1284.31 811.29 1330.85 818.292 1361.26 C 833.473 1427.18 899.973 1460.3 954.586 1488.62 C 976.071 1499.76 1013.99 1523.95 1037.61 1521.95 C 1069.38 1519.27 1107.44 1490.15 1133.62 1473 C 1159.39 1455.93 1187.43 1439.37 1208.76 1416.75 C 1252.18 1372.67 1251.31 1328.91 1250.7 1271.68 C 1247.32 1268.59 1243.61 1265.92 1239.96 1263.15 C 1185.5 1260.88 1128.33 1264.19 1073.66 1263.56 C 1064.33 1263.45 1047.26 1265.29 1039.09 1261.58 C 1036.48 1252.69 1038.92 1204.62 1038.84 1191.31 L 1038.72 1104.06 C 1058.76 1101.62 1106.88 1102.86 1128.91 1102.87 L 1299.85 1103.02 L 1430.7 1102.81 C 1445.92 1102.82 1482.13 1102.06 1495.27 1104.2 C 1491.88 1127.83 1493.1 1149.39 1492.99 1173.12 L 1493.02 1303.12 C 1493.16 1332.36 1493.56 1360.15 1491 1389.37 C 1490.09 1399.76 1489.99 1412.51 1487.99 1422.67 C 1480.65 1460.07 1458.71 1493.97 1432.57 1521.09 C 1425.13 1528.82 1412.09 1538.6 1403.72 1545.44 C 1370.45 1572.61 1334.77 1593.97 1297.92 1615.87 C 1252.94 1642.59 1207.95 1670.53 1162.52 1696.51 C 1129.76 1715.24 1095.97 1733.03 1063.86 1752.94 C 1052.78 1759.81 1041.62 1765.28 1030.63 1772.78 C 1018.34 1761.31 1010.45 1761.08 997.855 1753.14 C 982.268 1743.32 968.383 1735.86 952.624 1726.97 L 763.517 1619.78 C 716.576 1592.97 667.875 1562.66 627.289 1526.78 C 600.727 1503.29 579.736 1467.32 570.332 1433.44 C 563.034 1407.14 563.829 1375.41 563.704 1347.99 L 563.809 1270.36 L 563.893 1096.76 L 563.656 981.622 C 562.963 917.458 558.524 860.07 591.965 801.417 C 613.982 757.231 656.82 730.894 702.426 715.909 C 712.583 712.572 745.439 706.69 756.172 706.494 z"/>
<path transform="translate(0,0)" fill="rgb(54,91,128)" d="M 1024.68 18.9156 C 1037.35 19.4785 1042.96 29.8034 1051.69 38.6047 L 1093.11 80.8076 C 1127.56 115.502 1163.21 150.172 1198.36 184.184 C 1211.85 197.243 1226.61 215.5 1239.75 229.762 C 1244.74 228.106 1250.76 226.113 1255.32 223.577 C 1328.36 182.969 1407.44 154.624 1480.76 114.463 C 1483.83 112.779 1490.94 110.731 1494.46 110.39 L 1495.81 112.254 C 1497.63 125.452 1481.23 164.053 1476.27 179.032 L 1419.94 345.476 C 1416 357.001 1414.06 369.129 1409.81 380.705 C 1401.92 402.171 1396.48 426.773 1386.11 447.107 C 1362.27 446.698 1336.44 444.087 1312.31 442.918 C 1214.17 438.165 1115.75 442.032 1017.75 440.223 C 999.047 439.77 979.188 439.715 960.494 440.072 C 864.225 441.91 764.352 438.398 668.45 446.499 L 659.439 437.793 C 658.106 423.946 651.954 417.203 650.111 398.361 L 645.489 393.761 L 645.299 392.59 C 639.257 358.141 620.306 320.39 611.704 285.848 C 609.519 277.076 608.181 276.631 607.668 266.723 C 596.23 253.498 577.494 172.737 567.655 150.595 C 563.269 140.723 547.588 116.787 550.685 108.998 C 552.499 107.753 552.744 107.168 555.312 108.254 C 571.089 114.797 586.937 120.951 602.318 128.427 C 657.844 155.368 712.601 184.357 768.899 209.615 C 787.251 217.849 802.023 228.519 822.316 230.359 C 845.058 207.225 869.734 178.699 892.17 154.593 C 935.176 108.244 979.361 63.0033 1024.68 18.9156 z"/>
</svg>
